<svg width="22" height="22" viewBox="0 0 22 22" fill="none" xmlns="http://www.w3.org/2000/svg">
<path d="M13.7 3.1451C12.917 3.46379 12.197 3.81891 11.63 4.17403L11.477 4.27417C11.216 4.43808 10.784 4.43808 10.523 4.27417L10.298 4.13762C8.69597 3.12692 5.83397 2.16171 3.94397 2.00691C2.87297 1.91586 2 2.73534 2 3.8189V14.8184C2 15.6925 2.70199 16.5119 3.56599 16.6212L3.82703 16.6577C5.78003 16.9218 8.79497 17.9234 10.523 18.8794L10.559 18.8976C10.802 19.0341 11.189 19.0341 11.423 18.8976C13.151 17.9324 16.175 16.9218 18.137 16.6577L18.434 16.6212C19.298 16.5119 20 15.6925 20 14.8184V3.82801C20 2.73535 19.118 1.92497 18.047 2.01603H17.993C17.777 2.03424 17.543 2.06159 17.3 2.10712M13.7 3.1451V6.86016L15.5 5.64911L17.3 6.86016V2.10712M13.7 3.1451C14.879 2.67161 16.193 2.28923 17.3 2.10712M11 4.57471V18.2329" stroke="#80542F" stroke-width="1.5" stroke-linecap="round" stroke-linejoin="round"/>
</svg>
