<svg width="31" height="30" viewBox="0 0 31 30" fill="none" xmlns="http://www.w3.org/2000/svg">
<path d="M15.4997 0C6.93952 0 0 6.74047 0 15.0551C0 22.1153 5.00454 28.0398 11.7556 29.667V19.6559H8.55955V15.0551H11.7556V13.0726C11.7556 7.94849 14.1432 5.5734 19.3225 5.5734C20.3046 5.5734 21.999 5.76068 22.6922 5.94737V10.1176C22.3264 10.0803 21.6909 10.0616 20.9016 10.0616C18.3603 10.0616 17.3783 10.9968 17.3783 13.4279V15.0551H22.4411L21.5712 19.6559H17.3783V30C25.0531 29.0997 31 22.7525 31 15.0551C30.9994 6.74047 24.0599 0 15.4997 0Z" fill="#0866FF"/>
</svg>
