<svg width="27" height="27" viewBox="0 0 27 27" fill="none" xmlns="http://www.w3.org/2000/svg">
<g clip-path="url(#clip0_389_1735)">
<path d="M13.4998 11.1362V16.1708H20.7652C20.4462 17.7899 19.4888 19.1608 18.0529 20.0826L22.4342 23.3563C24.9869 21.0873 26.4597 17.7545 26.4597 13.7955C26.4597 12.8736 26.3738 11.9872 26.2142 11.1364L13.4998 11.1362Z" fill="#4285F4"/>
<path d="M5.93394 15.9744L4.94578 16.7028L1.448 19.3264C3.66936 23.5691 8.2222 26.5 13.4994 26.5C17.1443 26.5 20.2002 25.3418 22.4339 23.3564L18.0526 20.0828C16.8498 20.8627 15.3157 21.3355 13.4994 21.3355C9.98945 21.3355 7.00727 19.0546 5.93946 15.9819L5.93394 15.9744Z" fill="#34A853"/>
<path d="M1.44808 7.67358C0.527672 9.4226 0 11.3963 0 13.4999C0 15.6035 0.527672 17.5771 1.44808 19.3262C1.44808 19.3379 5.93997 15.9698 5.93997 15.9698C5.66997 15.1898 5.51038 14.3626 5.51038 13.4997C5.51038 12.6369 5.66997 11.8097 5.93997 11.0297L1.44808 7.67358Z" fill="#FBBC05"/>
<path d="M13.4997 5.67636C15.4879 5.67636 17.2552 6.33816 18.6665 7.61454L22.5324 3.89186C20.1883 1.78826 17.1448 0.5 13.4997 0.5C8.22248 0.5 3.66936 3.41909 1.448 7.67364L5.93975 11.03C7.00742 7.95725 9.98973 5.67636 13.4997 5.67636Z" fill="#EA4335"/>
</g>
<defs>
<clipPath id="clip0_389_1735">
<rect width="27" height="26" fill="white" transform="translate(0 0.5)"/>
</clipPath>
</defs>
</svg>
