<svg width="30" height="30" viewBox="0 0 30 30" fill="none" xmlns="http://www.w3.org/2000/svg">
<path d="M12.5875 3.525L3.925 10.4625C2.95 11.2375 2.325 12.875 2.5375 14.1L4.2 24.05C4.5 25.825 6.2 27.2625 8 27.2625H22C23.7875 27.2625 25.5 25.8125 25.8 24.05L27.4625 14.1C27.6625 12.875 27.0375 11.2375 26.075 10.4625L17.4125 3.5375C16.075 2.4625 13.9125 2.4625 12.5875 3.525Z" stroke="#404040" stroke-width="2" stroke-linecap="round" stroke-linejoin="round"/>
<path d="M15 19.375C15.8288 19.375 16.6237 19.0458 17.2097 18.4597C17.7958 17.8737 18.125 17.0788 18.125 16.25C18.125 15.4212 17.7958 14.6263 17.2097 14.0403C16.6237 13.4542 15.8288 13.125 15 13.125C14.1712 13.125 13.3763 13.4542 12.7903 14.0403C12.2042 14.6263 11.875 15.4212 11.875 16.25C11.875 17.0788 12.2042 17.8737 12.7903 18.4597C13.3763 19.0458 14.1712 19.375 15 19.375Z" fill="#404040" stroke="#404040" stroke-width="2" stroke-linecap="round" stroke-linejoin="round"/>
</svg>
