<svg width="19" height="19" viewBox="0 0 19 19" fill="none" xmlns="http://www.w3.org/2000/svg">
<path d="M18.8513 1.89379C18.8512 1.60966 18.7731 1.33101 18.6253 1.08831C18.4775 0.845603 18.2659 0.648202 18.0134 0.517693C17.761 0.387183 17.4775 0.328592 17.194 0.348328C16.9105 0.368064 16.6378 0.465367 16.4059 0.629594L5.5584 8.31858C5.3569 8.46103 5.19234 8.64953 5.07842 8.8684C4.9645 9.08726 4.90451 9.33017 4.90345 9.57689C4.90239 9.82361 4.96029 10.067 5.07232 10.2869C5.18435 10.5067 5.34728 10.6966 5.54755 10.8408L16.3951 18.6444C16.6265 18.8113 16.8995 18.9111 17.184 18.9327C17.4685 18.9544 17.7535 18.8971 18.0075 18.7671C18.2615 18.6372 18.4747 18.4396 18.6236 18.1963C18.7725 17.9529 18.8512 17.6732 18.8513 17.388V1.89379ZM0.25551 1.11606C0.25551 0.910617 0.337143 0.713587 0.48245 0.568315C0.627758 0.423044 0.824839 0.341431 1.03033 0.341431C1.23583 0.341431 1.43291 0.423044 1.57822 0.568315C1.72352 0.713587 1.80516 0.910617 1.80516 1.11606V18.1579C1.80516 18.3634 1.72352 18.5604 1.57822 18.7057C1.43291 18.851 1.23583 18.9326 1.03033 18.9326C0.824839 18.9326 0.627758 18.851 0.48245 18.7057C0.337143 18.5604 0.25551 18.3634 0.25551 18.1579V1.11606Z" fill="#A0A1AC"/>
</svg>
