<svg width="108" height="100" viewBox="0 0 108 100" fill="none" xmlns="http://www.w3.org/2000/svg">
<path d="M80.3564 97.2784C78.8541 97.9698 77.4284 98.8047 75.7941 99.2135C74.6407 99.5005 74.0875 99.3091 73.8917 98.0133C73.5768 95.9522 72.998 93.9519 72.3 91.9907C69.4528 83.9983 63.3924 80.0369 55.6977 78.0584C50.6672 76.7626 45.5218 76.4277 40.385 76.0668C39.0061 75.9711 37.6314 75.8537 36.278 75.6276C32.2222 74.8319 28.145 74.1491 24.1657 73.0012C21.808 72.0576 19.4459 71.1487 17.1818 69.9616C14.1303 68.357 11.9428 66.0089 10.2745 62.9563C7.39322 57.6817 5.19718 52.107 2.97134 46.5366C2.40105 44.032 1.46049 41.6316 1.04341 39.0747C-0.407848 30.1431 0.749757 22.0767 8.18482 16.0281L8.23163 15.9933C9.88718 15.1193 11.415 13.8017 13.3047 13.6278C15.6582 13.4103 16.9775 12.158 18.2756 10.236C20.5865 6.81377 23.8763 4.56999 27.6343 2.84366C35.4311 -0.735094 42.9641 -0.578551 50.3268 3.86119C51.2801 4.43518 51.9227 4.62217 52.9952 4.20907C64.3202 -0.161103 75.6962 -0.835109 87.2935 3.37417C99.3079 7.73564 108.603 20.9809 107.394 34.935C106.722 42.7057 102.934 47.6585 95.6649 49.9632C95.1244 50.1371 94.5584 50.2545 94.5115 50.972C94.4307 52.2113 93.8434 53.3028 93.5454 54.4682C92.341 59.2384 89.3832 62.7302 85.6167 65.4523C78.5987 70.5226 70.7296 71.8184 62.4178 69.9051C53.8549 67.9352 47.8073 62.8258 44.9388 54.2029C44.4281 52.6679 43.9174 52.2766 42.3172 52.6375C37.1547 53.7942 31.937 53.9855 26.7235 52.8723C23.4209 52.1679 20.3141 50.9155 17.2924 49.4066C16.4498 48.9848 15.4582 48.476 14.7857 49.5588C14.1856 50.5198 14.7687 51.3764 15.4284 52.1244C17.3393 54.2812 19.6034 55.9771 22.1101 57.3338C27.1747 60.0689 32.5882 61.0908 38.2826 60.7125C38.772 60.6821 39.4614 60.3342 39.6742 61.1561C39.853 61.8475 39.7168 62.5171 39.1763 63.0215C38.4826 63.6694 37.6101 63.7999 36.7079 63.8216C31.0731 63.9608 25.7447 62.7302 20.7482 60.0602C18.0883 58.6383 15.688 56.8424 13.5856 54.6465C11.3427 52.3027 11.0576 50.3198 12.5854 47.5759C12.9855 46.8541 12.7557 46.3279 12.4705 45.6974C11.0661 42.5709 9.70843 39.427 8.29547 36.3048C7.74646 35.0959 7.29533 33.8131 6.27817 32.8739C5.80577 32.439 5.33762 32.0694 4.66519 32.2869C3.97999 32.5086 3.78847 33.1174 3.69484 33.7392C3.45651 35.3307 3.76294 36.8918 4.06085 38.4399C5.81002 47.5846 9.6829 55.8379 14.3346 63.7521C14.8283 64.5913 15.4965 65.3175 16.3562 65.8958C19.0331 67.7004 21.9484 68.9397 24.9744 69.9486C32.5073 72.462 40.3765 72.749 48.1563 73.636C54.4805 74.3579 60.5835 75.7363 66.0821 79.2977C71.5339 82.8286 74.4747 88.0511 76.0962 94.191C76.4963 95.7043 77.0411 95.6608 78.0582 94.9607C78.288 94.8042 78.5306 94.665 78.7604 94.5128C83.642 91.2037 85.8891 86.2465 87.0892 80.6327C87.1829 80.1891 86.9445 79.4455 87.6425 79.3977C88.2596 79.3542 88.8214 79.7804 89.1193 80.3457C89.7747 81.6067 89.6641 82.9373 89.2938 84.2592C88.1021 88.5207 85.9444 92.2038 82.8716 95.326L82.7227 95.4216L82.5014 95.6826C81.7779 96.2174 81.0586 96.7479 80.3351 97.2828L80.3564 97.2784ZM20.1311 12.7668C24.8977 13.6365 28.8855 15.4367 31.6987 19.3068C33.8522 22.2637 34.0139 25.6033 32.2562 28.4863C30.6645 31.0954 27.8684 32.2564 24.4466 31.5781C21.7356 31.0432 19.5651 29.5386 17.9436 27.2601C15.8795 24.364 14.9177 21.1027 15.3518 17.5413C15.539 15.9977 14.9304 16.0629 13.9643 16.5021C12.9259 16.9717 11.8832 17.4674 10.9214 18.0805C7.21022 20.433 4.87373 23.8031 3.97148 28.1863C3.85231 28.7603 3.72038 29.2647 4.6737 29.1951C7.06126 29.0212 8.53806 30.404 9.69566 32.3738C11.4406 35.3351 12.4322 38.6356 13.926 41.7099C14.9815 43.8885 15.7263 45.9627 18.5777 46.7845C21.2887 47.5672 23.8465 49.0413 26.6469 49.7458C31.9711 51.0894 37.2611 50.5894 42.5512 49.5284C43.3556 49.3675 43.8578 49.0457 43.6535 48.0586C43.0194 45.019 43.3811 41.9925 44.0408 39.0226C44.892 35.2003 46.7178 32.0303 50.7226 31.0128C53.5442 30.2953 56.1531 31.0562 58.0129 33.4566C60.0983 36.1483 59.9238 39.14 58.5704 42.0795C56.6042 46.341 53.0931 48.9457 48.9393 50.572C47.3051 51.2112 47.1774 51.7287 47.7434 53.2984C49.3096 57.6599 51.778 61.3735 55.6168 63.7651C63.3328 68.5788 71.5382 68.9441 79.7904 65.3392C85.6082 62.7954 89.6428 58.4339 91.2813 51.9983C91.5665 50.8807 91.3962 50.5024 90.2088 50.5242C88.6043 50.5502 87.0169 50.2328 85.489 49.724C80.8884 48.1934 76.8921 45.8539 74.8493 41.0489C73.2107 37.1919 74.33 32.5999 77.5007 30.0387C80.6458 27.4992 84.9017 27.4384 88.2554 29.9691C92.0006 32.7913 93.4263 36.9049 94.1796 41.3751C94.3881 42.6274 94.3966 43.8972 94.5541 45.1408C94.7924 47.0237 95.0818 47.0889 96.8906 46.3062C101.785 44.1885 103.828 40.0401 104.364 34.9959C105.505 24.2771 99.6527 13.1973 89.9024 7.97045C78.5391 1.87831 66.8184 2.64798 55.0295 6.63984C54.0166 6.98336 53.9698 7.43125 54.5231 8.33137C56.7915 12.0188 57.6299 16.0281 56.6723 20.3026C55.6935 24.6945 51.8546 27.3992 47.7179 26.7644C43.7982 26.1643 41.3213 22.6594 41.6192 18.0632C41.8958 13.7452 43.9046 10.3664 47.1561 7.6965C48.8202 6.3311 48.8627 6.23543 46.8497 5.31791C40.2999 2.3262 33.8394 2.86975 27.5619 6.17021C24.6552 7.6965 22.0846 9.70982 20.1396 12.7581L20.1311 12.7668ZM91.8644 45.6365C91.6984 44.4103 91.5962 43.1753 91.3537 41.9664C91.0983 40.7011 90.7749 39.4444 90.362 38.2225C89.613 36.0135 88.4894 34.0262 86.6424 32.5565C84.1995 30.6127 80.8799 30.6997 78.8626 32.9956C76.4452 35.7482 76.2367 38.2311 78.3391 41.2446C81.1523 45.2799 85.2677 46.9454 89.9364 47.5107C91.4345 47.6933 92.1878 47.3237 91.8644 45.6409V45.6365ZM18.2202 18.9372C18.1181 22.4681 20.4163 27.1644 24.1913 28.3472C26.1234 28.956 28.4174 28.6037 29.3026 27.4731C30.7326 25.6512 30.8305 23.7074 29.5409 21.581C27.6088 18.3893 24.5658 16.8891 21.1568 16.1455C18.5309 15.5715 18.2287 15.9759 18.216 18.9415L18.2202 18.9372ZM54.0634 17.6979C54.0762 14.5235 53.1271 11.4318 51.7312 9.54024C51.3993 9.088 51.1992 8.64446 50.4374 9.03147C46.8412 10.8578 44.1217 15.915 44.6919 19.8764C45.1686 23.1639 48.2839 24.7728 51.1396 23.2465C53.5825 21.9419 53.8464 19.5764 54.0634 17.6979ZM46.4709 44.1494C46.4709 47.057 47.6001 47.9194 49.8586 46.7367C50.0033 46.6584 50.1523 46.5845 50.2927 46.4975C53.0378 44.8799 55.3232 42.8057 56.2765 39.6053C57.3745 35.9047 54.7103 33.087 51.0673 34.0914C49.4373 34.5393 48.4201 35.8308 47.7605 37.3615C46.7773 39.64 46.3049 42.036 46.4709 44.145V44.1494Z" fill="#80542F"/>
</svg>
