<svg width="30" height="30" viewBox="0 0 30 30" fill="none" xmlns="http://www.w3.org/2000/svg">
<path d="M15.025 3.63733C10.8875 3.63733 7.52499 6.99983 7.52499 11.1373V14.7498C7.52499 15.5123 7.19999 16.6748 6.81249 17.3248L5.37499 19.7123C4.48749 21.1873 5.09999 22.8248 6.72499 23.3748C12.1125 25.1748 17.925 25.1748 23.3125 23.3748C24.825 22.8748 25.4875 21.0873 24.6625 19.7123L23.225 17.3248C22.85 16.6748 22.525 15.5123 22.525 14.7498V11.1373C22.525 7.01233 19.15 3.63733 15.025 3.63733Z" stroke="#80542F" stroke-width="2" stroke-miterlimit="10" stroke-linecap="round"/>
<path d="M17.3374 3.99993C16.9499 3.88743 16.5499 3.79993 16.1374 3.74993C14.9374 3.59993 13.7874 3.68743 12.7124 3.99993C13.0749 3.07493 13.9749 2.42493 15.0249 2.42493C16.0749 2.42493 16.9749 3.07493 17.3374 3.99993Z" stroke="#80542F" stroke-width="2" stroke-miterlimit="10" stroke-linecap="round" stroke-linejoin="round"/>
<path d="M18.7749 23.8251C18.7749 25.8876 17.0874 27.5751 15.0249 27.5751C13.9999 27.5751 13.0499 27.1501 12.3749 26.4751C11.6999 25.8001 11.2749 24.8501 11.2749 23.8251" stroke="#80542F" stroke-width="2" stroke-miterlimit="10"/>
<circle cx="22" cy="6" r="4" fill="#E9000E" stroke="#FEFEFE" stroke-width="2"/>
</svg>
