<svg width="30" height="30" viewBox="0 0 30 30" fill="none" xmlns="http://www.w3.org/2000/svg">
<path d="M15.1995 13.5875C15.0745 13.575 14.9245 13.575 14.787 13.5875C11.812 13.4875 9.44946 11.05 9.44946 8.05C9.44946 4.9875 11.9245 2.5 14.9995 2.5C18.062 2.5 20.5495 4.9875 20.5495 8.05C20.537 11.05 18.1745 13.4875 15.1995 13.5875Z" stroke="black" stroke-opacity="0.75" stroke-width="2" stroke-linecap="round" stroke-linejoin="round"/>
<path d="M8.94941 18.2C5.92441 20.225 5.92441 23.525 8.94941 25.5375C12.3869 27.8375 18.0244 27.8375 21.4619 25.5375C24.4869 23.5125 24.4869 20.2125 21.4619 18.2C18.0369 15.9125 12.3994 15.9125 8.94941 18.2Z" stroke="black" stroke-opacity="0.75" stroke-width="2" stroke-linecap="round" stroke-linejoin="round"/>
</svg>
