<svg width="19" height="19" viewBox="0 0 19 19" fill="none" xmlns="http://www.w3.org/2000/svg">
<path d="M0.0426941 1.89379C0.0427045 1.60966 0.12087 1.33101 0.26864 1.08831C0.41641 0.845603 0.628095 0.648202 0.880539 0.517693C1.13298 0.387183 1.41647 0.328592 1.69998 0.348328C1.98349 0.368064 2.25612 0.465367 2.48803 0.629594L13.3356 8.31858C13.5371 8.46103 13.7016 8.64953 13.8155 8.8684C13.9295 9.08726 13.9894 9.33017 13.9905 9.57689C13.9916 9.82362 13.9337 10.067 13.8216 10.2869C13.7096 10.5067 13.5467 10.6966 13.3464 10.8408L2.49888 18.6444C2.26747 18.8113 1.99446 18.9111 1.70995 18.9327C1.42544 18.9544 1.14048 18.8971 0.886466 18.7671C0.632453 18.6372 0.419257 18.4396 0.270374 18.1963C0.121492 17.9529 0.0427036 17.6732 0.0426941 17.388V1.89379ZM18.6384 1.11606C18.6384 0.910617 18.5568 0.713587 18.4115 0.568315C18.2662 0.423044 18.0691 0.341431 17.8636 0.341431C17.6581 0.341431 17.461 0.423044 17.3157 0.568315C17.1704 0.713587 17.0888 0.910617 17.0888 1.11606V18.1579C17.0888 18.3634 17.1704 18.5604 17.3157 18.7057C17.461 18.851 17.6581 18.9326 17.8636 18.9326C18.0691 18.9326 18.2662 18.851 18.4115 18.7057C18.5568 18.5604 18.6384 18.3634 18.6384 18.1579V1.11606Z" fill="#A0A1AC"/>
</svg>
