<svg width="23" height="21" viewBox="0 0 23 21" fill="none" xmlns="http://www.w3.org/2000/svg">
<path d="M19.6468 13.235C19.4113 12.9995 19.0919 12.8672 18.7589 12.8672C18.4258 12.8672 18.1064 12.9995 17.8709 13.235C17.6354 13.4705 17.5031 13.7899 17.5031 14.1229C17.5031 14.456 17.6354 14.7754 17.8709 15.0109L18.2336 15.3735H16.2577C14.931 15.3735 13.6586 14.8465 12.7205 13.9084C11.7823 12.9702 11.2553 11.6979 11.2553 10.3712C11.2553 9.04446 11.7823 7.77209 12.7205 6.83396C13.6586 5.89584 14.931 5.36881 16.2577 5.36881H18.2461L17.8709 5.73148C17.7537 5.84774 17.6607 5.98605 17.5972 6.13845C17.5337 6.29084 17.501 6.4543 17.501 6.6194C17.501 6.78449 17.5337 6.94795 17.5972 7.10034C17.6607 7.25274 17.7537 7.39106 17.8709 7.50731C17.9878 7.62322 18.1264 7.71492 18.2787 7.77716C18.4311 7.83939 18.5943 7.87094 18.7589 7.86999C18.9234 7.87094 19.0866 7.83939 19.239 7.77716C19.3913 7.71492 19.5299 7.62322 19.6468 7.50731L22.1479 5.00613C22.2639 4.88928 22.3556 4.75069 22.4178 4.59832C22.48 4.44596 22.5116 4.2828 22.5106 4.11822C22.5116 3.95363 22.48 3.79047 22.4178 3.63811C22.3556 3.48574 22.2639 3.34715 22.1479 3.2303L19.6468 0.729116C19.5302 0.612513 19.3917 0.520019 19.2394 0.456914C19.087 0.393808 18.9238 0.361328 18.7589 0.361328C18.4258 0.361328 18.1064 0.493626 17.8709 0.729116C17.6354 0.964607 17.5031 1.284 17.5031 1.61704C17.5031 1.95007 17.6354 2.26946 17.8709 2.50495L18.2336 2.86763H16.2577C15.0187 2.86853 13.7992 3.17623 12.7081 3.76324C11.617 4.35025 10.6882 5.19832 10.0047 6.23171C9.32121 5.19832 8.39245 4.35025 7.30134 3.76324C6.21024 3.17623 4.99076 2.86853 3.75177 2.86763H1.25059C0.918913 2.86763 0.60082 2.99938 0.366289 3.23392C0.131758 3.46845 0 3.78654 0 4.11822C0 4.44989 0.131758 4.76798 0.366289 5.00252C0.60082 5.23705 0.918913 5.36881 1.25059 5.36881H3.75177C5.07848 5.36881 6.35085 5.89584 7.28897 6.83396C8.2271 7.77209 8.75413 9.04446 8.75413 10.3712C8.75413 11.6979 8.2271 12.9702 7.28897 13.9084C6.35085 14.8465 5.07848 15.3735 3.75177 15.3735H1.25059C0.918913 15.3735 0.60082 15.5053 0.366289 15.7398C0.131758 15.9743 0 16.2924 0 16.6241C0 16.9558 0.131758 17.2739 0.366289 17.5084C0.60082 17.7429 0.918913 17.8747 1.25059 17.8747H3.75177C4.99076 17.8738 6.21024 17.5661 7.30134 16.9791C8.39245 16.3921 9.32121 15.544 10.0047 14.5106C10.6882 15.544 11.617 16.3921 12.7081 16.9791C13.7992 17.5661 15.0187 17.8738 16.2577 17.8747H18.2461L17.8709 18.2374C17.7537 18.3536 17.6607 18.492 17.5972 18.6443C17.5337 18.7967 17.501 18.9602 17.501 19.1253C17.501 19.2904 17.5337 19.4538 17.5972 19.6062C17.6607 19.7586 17.7537 19.897 17.8709 20.0132C17.9878 20.1291 18.1264 20.2208 18.2787 20.2831C18.4311 20.3453 18.5943 20.3768 18.7589 20.3759C18.9234 20.3768 19.0866 20.3453 19.239 20.2831C19.3913 20.2208 19.5299 20.1291 19.6468 20.0132L22.1479 17.512C22.2639 17.3952 22.3556 17.2566 22.4178 17.1042C22.48 16.9519 22.5116 16.7887 22.5106 16.6241C22.5116 16.4595 22.48 16.2964 22.4178 16.144C22.3556 15.9916 22.2639 15.8531 22.1479 15.7362L19.6468 13.235Z" fill="#A0A1AC"/>
</svg>
