<svg width="50" height="46" viewBox="0 0 50 46" fill="none" xmlns="http://www.w3.org/2000/svg">
<path d="M37.3161 45.047C36.6141 45.3683 35.9478 45.7562 35.1842 45.9462C34.6452 46.0795 34.3867 45.9906 34.2952 45.3885C34.148 44.4308 33.8775 43.5014 33.5514 42.5901C32.2209 38.8765 29.389 37.0358 25.7933 36.1165C23.4426 35.5144 21.0382 35.3588 18.6378 35.1911C17.9935 35.1467 17.3511 35.0921 16.7187 34.9871C14.8234 34.6173 12.9182 34.3001 11.0588 33.7667C9.95699 33.3283 8.85324 32.906 7.79523 32.3544C6.36931 31.6088 5.34709 30.5178 4.56751 29.0994C3.22113 26.6486 2.19494 24.0583 1.15483 21.4701C0.88834 20.3063 0.448829 19.191 0.253932 18.0029C-0.424228 13.8528 0.116709 10.1049 3.59104 7.29436L3.61291 7.2782C4.38653 6.87208 5.10049 6.25988 5.98349 6.17906C7.08326 6.07804 7.69977 5.49614 8.30634 4.60308C9.38622 3.01297 10.9235 1.9704 12.6796 1.16827C16.3229 -0.494588 19.843 -0.421851 23.2835 1.64106C23.729 1.90776 24.0293 1.99464 24.5305 1.8027C29.8225 -0.227885 35.1384 -0.54106 40.5577 1.41477C46.1719 3.44131 50.5153 9.59569 49.9505 16.0794C49.6363 19.69 47.8663 21.9913 44.4696 23.0622C44.217 23.143 43.9525 23.1976 43.9306 23.5309C43.8928 24.1068 43.6184 24.6139 43.4792 25.1554C42.9164 27.3719 41.5342 28.9943 39.7742 30.2591C36.4947 32.615 32.8176 33.2171 28.9335 32.3281C24.9322 31.4128 22.1062 29.0388 20.7658 25.0322C20.5271 24.3189 20.2885 24.1371 19.5407 24.3048C17.1284 24.8422 14.6902 24.9311 12.254 24.4139C10.7107 24.0866 9.25894 23.5047 7.84694 22.8036C7.45317 22.6076 6.98979 22.3712 6.67557 22.8743C6.39516 23.3208 6.66762 23.7189 6.97587 24.0664C7.86882 25.0685 8.92682 25.8565 10.0982 26.4869C12.4648 27.7578 14.9945 28.2326 17.6554 28.0568C17.8841 28.0427 18.2063 27.881 18.3057 28.2629C18.3892 28.5842 18.3256 28.8953 18.073 29.1297C17.7489 29.4308 17.3412 29.4914 16.9196 29.5015C14.2865 29.5661 11.7966 28.9943 9.4618 27.7538C8.21883 27.0931 7.09718 26.2586 6.11475 25.2383C5.06668 24.1492 4.93344 23.2279 5.64739 21.953C5.83433 21.6176 5.72694 21.3731 5.5937 21.0801C4.93741 19.6274 4.30301 18.1666 3.64274 16.7159C3.3862 16.1542 3.17539 15.5581 2.70008 15.1217C2.47933 14.9197 2.26057 14.7479 1.94635 14.8489C1.62616 14.952 1.53667 15.2349 1.49292 15.5238C1.38155 16.2633 1.52474 16.9886 1.66395 17.7079C2.48132 21.957 4.29107 25.7919 6.46477 29.4691C6.69546 29.8591 7.00769 30.1965 7.40942 30.4652C8.66033 31.3037 10.0226 31.8796 11.4366 32.3483C14.9567 33.5162 18.6339 33.6495 22.2693 34.0617C25.2245 34.3971 28.0764 35.0376 30.6458 36.6924C33.1934 38.333 34.5676 40.7596 35.3254 43.6125C35.5123 44.3156 35.7668 44.2954 36.2422 43.9701C36.3496 43.8974 36.4629 43.8327 36.5703 43.762C38.8514 42.2244 39.9014 39.9211 40.4623 37.3126C40.506 37.1066 40.3946 36.7611 40.7208 36.7388C41.0092 36.7186 41.2717 36.9166 41.4109 37.1793C41.7172 37.7652 41.6655 38.3835 41.4924 38.9977C40.9356 40.9778 39.9273 42.6891 38.4914 44.1399L38.4218 44.1843L38.3184 44.3055C37.9803 44.5541 37.6442 44.8005 37.3061 45.0491L37.3161 45.047ZM9.17343 5.779C11.4008 6.1831 13.2643 7.01958 14.5788 8.81781C15.5851 10.1917 15.6607 11.7435 14.8393 13.083C14.0956 14.2953 12.789 14.8348 11.19 14.5196C9.92318 14.2711 8.90893 13.572 8.15122 12.5133C7.18668 11.1676 6.73722 9.65227 6.94007 7.99749C7.02758 7.28022 6.74319 7.31053 6.29174 7.5146C5.80649 7.73281 5.31925 7.96314 4.8698 8.24803C3.13562 9.34111 2.0438 10.907 1.62218 12.9436C1.5665 13.2103 1.50485 13.4447 1.95033 13.4124C3.06601 13.3316 3.7561 13.9741 4.29704 14.8894C5.11242 16.2653 5.5758 17.7988 6.27385 19.2273C6.76705 20.2396 7.11508 21.2034 8.44754 21.5852C9.71437 21.9489 10.9096 22.6339 12.2182 22.9612C14.7061 23.5855 17.1781 23.3531 19.6501 22.8601C20.026 22.7854 20.2607 22.6359 20.1652 22.1772C19.8689 20.7649 20.0379 19.3587 20.3462 17.9787C20.7439 16.2027 21.5971 14.7297 23.4685 14.2569C24.787 13.9236 26.0061 14.2771 26.8752 15.3925C27.8497 16.6431 27.7681 18.0332 27.1357 19.3991C26.2169 21.3791 24.5762 22.5894 22.6352 23.3451C21.8715 23.6421 21.8119 23.8825 22.0764 24.6119C22.8082 26.6384 23.9617 28.3639 25.7555 29.4752C29.3611 31.7119 33.1954 31.8816 37.0516 30.2066C39.7702 29.0246 41.6555 26.9981 42.4212 24.0078C42.5544 23.4885 42.4749 23.3127 41.92 23.3228C41.1703 23.335 40.4285 23.1875 39.7145 22.9511C37.5647 22.2399 35.6972 21.1528 34.7427 18.9202C33.977 17.128 34.5 14.9944 35.9816 13.8044C37.4513 12.6244 39.4401 12.5961 41.0072 13.772C42.7573 15.0833 43.4235 16.9947 43.7755 19.0717C43.873 19.6536 43.8769 20.2436 43.9505 20.8215C44.0619 21.6964 44.1971 21.7267 45.0423 21.363C47.3294 20.379 48.284 18.4515 48.5346 16.1077C49.0675 11.1272 46.333 5.97903 41.7768 3.55041C36.4669 0.71972 30.9899 1.07735 25.4811 2.93215C25.0078 3.09176 24.9859 3.29987 25.2444 3.71811C26.3044 5.43148 26.6962 7.29436 26.2487 9.2805C25.7913 11.3212 23.9975 12.5779 22.0644 12.2829C20.2328 12.0041 19.0754 10.3756 19.2146 8.23995C19.3438 6.23361 20.2825 4.6637 21.8019 3.42312C22.5795 2.78869 22.5994 2.74424 21.6587 2.31792C18.5981 0.92783 15.5792 1.18039 12.6458 2.71394C11.2875 3.42312 10.0863 4.35861 9.17741 5.77496L9.17343 5.779ZM42.6936 21.0518C42.6161 20.482 42.5683 19.9082 42.455 19.3465C42.3357 18.7586 42.1845 18.1747 41.9916 17.6069C41.6416 16.5805 41.1166 15.6571 40.2534 14.9742C39.1119 14.0711 37.5607 14.1115 36.618 15.1783C35.4884 16.4572 35.391 17.6109 36.3734 19.0111C37.688 20.8861 39.6111 21.66 41.7927 21.9226C42.4928 22.0075 42.8448 21.8358 42.6936 21.0538V21.0518ZM8.28049 8.64607C8.23275 10.2867 9.30667 12.4688 11.0707 13.0184C11.9736 13.3013 13.0455 13.1376 13.4592 12.6123C14.1274 11.7657 14.1731 10.8625 13.5705 9.87452C12.6676 8.39149 11.2457 7.69442 9.65271 7.34892C8.42566 7.08221 8.28446 7.27012 8.2785 8.64809L8.28049 8.64607ZM25.0296 8.07023C25.0356 6.59528 24.5921 5.15872 23.9398 4.27981C23.7847 4.06968 23.6912 3.86359 23.3352 4.04341C21.6548 4.89201 20.384 7.24183 20.6504 9.08249C20.8732 10.61 22.3289 11.3576 23.6634 10.6484C24.8049 10.0422 24.9282 8.94308 25.0296 8.07023ZM21.4817 20.3608C21.4817 21.7118 22.0094 22.1126 23.0648 21.563C23.1324 21.5266 23.202 21.4923 23.2676 21.4519C24.5504 20.7003 25.6183 19.7365 26.0638 18.2494C26.5769 16.53 25.3319 15.2207 23.6296 15.6874C22.8679 15.8956 22.3926 16.4956 22.0843 17.2068C21.6249 18.2656 21.4042 19.3789 21.4817 20.3588V20.3608Z" fill="#80542F"/>
</svg>
