<svg width="24" height="22" viewBox="0 0 24 22" fill="none" xmlns="http://www.w3.org/2000/svg">
<path d="M8.68696 22C8.24456 22 7.88261 21.6426 7.88261 21.2058V0.794224C7.88261 0.357401 8.24456 0 8.68696 0C9.12935 0 9.4913 0.357401 9.4913 0.794224V21.2058C9.4913 21.6426 9.12935 22 8.68696 22ZM20.4707 21.1264C20.0283 21.1264 19.6663 20.769 19.6663 20.3321V1.66787C19.6663 1.23105 20.0283 0.873647 20.4707 0.873647C20.913 0.873647 21.275 1.23105 21.275 1.66787V20.3718C21.275 20.769 20.913 21.1264 20.4707 21.1264ZM32.2543 19.6968C31.812 19.6968 31.45 19.3394 31.45 18.9025V3.09747C31.45 2.66065 31.812 2.30325 32.2543 2.30325C32.6967 2.30325 33.0587 2.66065 33.0587 3.09747V18.9025C33.0587 19.3394 32.6967 19.6968 32.2543 19.6968ZM4.74565 18.7834C4.30326 18.7834 3.9413 18.426 3.9413 17.9892V4.01083C3.9413 3.57401 4.30326 3.21661 4.74565 3.21661C5.18804 3.21661 5.55 3.57401 5.55 4.01083V18.0289C5.55 18.4657 5.18804 18.7834 4.74565 18.7834ZM12.588 18.6245C12.1457 18.6245 11.7837 18.2671 11.7837 17.8303V4.16968C11.7837 3.73285 12.1457 3.37545 12.588 3.37545C13.0304 3.37545 13.3924 3.73285 13.3924 4.16968V17.8303C13.3924 18.2671 13.0304 18.6245 12.588 18.6245ZM24.412 17.4729C23.9696 17.4729 23.6076 17.1155 23.6076 16.6787V5.3213C23.6076 4.88448 23.9696 4.52708 24.412 4.52708C24.8543 4.52708 25.2163 4.88448 25.2163 5.3213V16.6787C25.2163 17.1155 24.8543 17.4729 24.412 17.4729ZM36.1957 17.3538C35.7533 17.3538 35.3913 16.9964 35.3913 16.5596V5.44043C35.3913 5.00361 35.7533 4.64621 36.1957 4.64621C36.638 4.64621 37 5.00361 37 5.44043V16.5596C37 16.9964 36.638 17.3538 36.1957 17.3538ZM16.5293 15.6065C16.087 15.6065 15.725 15.2491 15.725 14.8123V7.18773C15.725 6.7509 16.087 6.3935 16.5293 6.3935C16.9717 6.3935 17.3337 6.7509 17.3337 7.18773V14.8123C17.3337 15.2491 16.9717 15.6065 16.5293 15.6065ZM0.804348 15.6065C0.361957 15.6065 0 15.2491 0 14.8123V7.18773C0 6.7509 0.361957 6.3935 0.804348 6.3935C1.24674 6.3935 1.6087 6.7509 1.6087 7.18773V14.8123C1.6087 15.2491 1.24674 15.6065 0.804348 15.6065ZM28.313 14.2166C27.8707 14.2166 27.5087 13.8592 27.5087 13.4224V8.57762C27.5087 8.1408 27.8707 7.78339 28.313 7.78339C28.7554 7.78339 29.1174 8.1408 29.1174 8.57762V13.4621C29.1174 13.8592 28.7554 14.2166 28.313 14.2166Z" fill="#404040"/>
</svg>
